<?xml version="1.0" encoding="UTF-8" standalone="no"?>
<svg
   xmlns:dc="http://purl.org/dc/elements/1.1/"
   xmlns:cc="http://creativecommons.org/ns#"
   xmlns:rdf="http://www.w3.org/1999/02/22-rdf-syntax-ns#"
   xmlns:svg="http://www.w3.org/2000/svg"
   xmlns="http://www.w3.org/2000/svg"
   xmlns:sodipodi="http://sodipodi.sourceforge.net/DTD/sodipodi-0.dtd"
   xmlns:inkscape="http://www.inkscape.org/namespaces/inkscape"
   id="svg8"
   version="1.1"
   viewBox="0 0 185.16029 83.223351"
   height="83.223351mm"
   width="185.16029mm"
   sodipodi:docname="marker2.svg"
   inkscape:version="0.92.2 2405546, 2018-03-11">
  <sodipodi:namedview
     pagecolor="#ffffff"
     bordercolor="#666666"
     borderopacity="1"
     objecttolerance="10"
     gridtolerance="10"
     guidetolerance="10"
     inkscape:pageopacity="0"
     inkscape:pageshadow="2"
     inkscape:window-width="1916"
     inkscape:window-height="1153"
     id="namedview27"
     showgrid="false"
     inkscape:zoom="0.5946522"
     inkscape:cx="-18.712523"
     inkscape:cy="11.054464"
     inkscape:window-x="1920"
     inkscape:window-y="22"
     inkscape:window-maximized="0"
     inkscape:current-layer="svg8"
     fit-margin-top="0"
     fit-margin-left="0"
     fit-margin-right="0"
     fit-margin-bottom="0" />
  <defs
     id="defs2">
    <marker
       style="overflow:visible"
       id="Arrow1Lend"
       refX="0"
       refY="0"
       orient="auto">
      <path
         transform="matrix(-0.8,0,0,-0.8,-10,0)"
         style="fill:#000000;fill-opacity:1;fill-rule:evenodd;stroke:#000000;stroke-width:1.00000003pt;stroke-opacity:1"
         d="M 0,0 5,-5 -12.5,0 5,5 Z"
         id="path843"
         inkscape:connector-curvature="0" />
    </marker>
    <marker
       style="overflow:visible"
       id="Tail"
       refX="0"
       refY="0"
       orient="auto">
      <g
         style="fill:#000000;fill-opacity:1;stroke:#000000;stroke-opacity:1"
         transform="scale(-1.2)"
         id="g888">
        <path
           style="fill:#000000;fill-opacity:1;fill-rule:evenodd;stroke:#000000;stroke-width:0.80000001;stroke-linecap:round;stroke-opacity:1"
           d="M -3.8048674,-3.9585227 0.54352094,0"
           id="path876"
           inkscape:connector-curvature="0" />
        <path
           style="fill:#000000;fill-opacity:1;fill-rule:evenodd;stroke:#000000;stroke-width:0.80000001;stroke-linecap:round;stroke-opacity:1"
           d="M -1.2866832,-3.9585227 3.0617053,0"
           id="path878"
           inkscape:connector-curvature="0" />
        <path
           style="fill:#000000;fill-opacity:1;fill-rule:evenodd;stroke:#000000;stroke-width:0.80000001;stroke-linecap:round;stroke-opacity:1"
           d="M 1.3053582,-3.9585227 5.6537466,0"
           id="path880"
           inkscape:connector-curvature="0" />
        <path
           style="fill:#000000;fill-opacity:1;fill-rule:evenodd;stroke:#000000;stroke-width:0.80000001;stroke-linecap:round;stroke-opacity:1"
           d="M -3.8048674,4.1775838 0.54352094,0.21974226"
           id="path882"
           inkscape:connector-curvature="0" />
        <path
           style="fill:#000000;fill-opacity:1;fill-rule:evenodd;stroke:#000000;stroke-width:0.80000001;stroke-linecap:round;stroke-opacity:1"
           d="M -1.2866832,4.1775838 3.0617053,0.21974226"
           id="path884"
           inkscape:connector-curvature="0" />
        <path
           style="fill:#000000;fill-opacity:1;fill-rule:evenodd;stroke:#000000;stroke-width:0.80000001;stroke-linecap:round;stroke-opacity:1"
           d="M 1.3053582,4.1775838 5.6537466,0.21974226"
           id="path886"
           inkscape:connector-curvature="0" />
      </g>
    </marker>
    <marker
       style="overflow:visible"
       id="Arrow1Lstart"
       refX="0"
       refY="0"
       orient="auto">
      <path
         transform="matrix(0.8,0,0,0.8,10,0)"
         style="fill:#000000;fill-opacity:1;fill-rule:evenodd;stroke:#000000;stroke-width:1.00000003pt;stroke-opacity:1"
         d="M 0,0 5,-5 -12.5,0 5,5 Z"
         id="path840"
         inkscape:connector-curvature="0" />
    </marker>
    <marker
       style="overflow:visible"
       id="Arrow1Lend-6"
       refX="0"
       refY="0"
       orient="auto">
      <path
         transform="matrix(-0.8,0,0,-0.8,-10,0)"
         style="fill:#000000;fill-opacity:1;fill-rule:evenodd;stroke:#000000;stroke-width:1.00000003pt;stroke-opacity:1"
         d="M 0,0 5,-5 -12.5,0 5,5 Z"
         id="path843-3"
         inkscape:connector-curvature="0" />
    </marker>
  </defs>
  <metadata
     id="metadata5">
    <rdf:RDF>
      <cc:Work
         rdf:about="">
        <dc:format>image/svg+xml</dc:format>
        <dc:type
           rdf:resource="http://purl.org/dc/dcmitype/StillImage" />
        <dc:title></dc:title>
      </cc:Work>
    </rdf:RDF>
  </metadata>
  <path
     inkscape:connector-curvature="0"
     style="font-style:normal;font-variant:normal;font-weight:normal;font-stretch:normal;font-size:50.79999924px;line-height:1.25;font-family:Anton;-inkscape-font-specification:'Anton, Normal';font-variant-ligatures:normal;font-variant-caps:normal;font-variant-numeric:normal;font-feature-settings:normal;text-align:start;letter-spacing:0px;word-spacing:0px;writing-mode:lr-tb;text-anchor:start;fill:#000000;fill-opacity:1;stroke:none;stroke-width:0.26458332"
     d="M 0,0 C 0,0 6.44951,25.8362 9.5575702,38.779032 L 13.103601,26.03666 45.390521,83.223352 H 185.16029 v -2.67167 h -4.89789 c 0.95393,-0.47458 1.74003,-1.08891 2.35696,-1.84433 1.69333,-2.06587 2.53989,-5.26655 2.53989,-9.60148 v -2.13372 H 176.32 v 3.60701 c 0,1.016 -0.0335,1.79494 -0.10128,2.33681 -0.0339,0.508 -0.20317,0.96509 -0.50797,1.37149 -0.27094,0.4064 -0.74534,0.60979 -1.42267,0.60979 -0.88053,0 -1.45608,-0.35592 -1.72701,-1.06712 -0.27094,-0.74507 -0.40672,-1.76095 -0.40672,-3.04788 v -7.21352 h 12.90362 c 0.0677,-1.69333 0.10128,-3.89439 0.10128,-6.60373 v -2.69286 c 0,-7.0104 -3.57285,-10.51512 -10.71872,-10.51512 -3.52213,0 -6.2652,0.89741 -8.22946,2.69235 -1.96427,1.79493 -2.94661,4.40224 -2.94661,7.82277 v 14.93553 c 0,4.1656 0.82978,7.29814 2.48925,9.39788 0.63423,0.80248 1.42785,1.45034 2.37868,1.94613 h -13.13563 v -27.65103 c 0,-0.47413 0.74538,-0.88038 2.23551,-1.21905 1.524,-0.37253 2.91206,-0.55862 4.16513,-0.55862 v -7.41712 c -1.6256,0 -2.99689,0.40677 -4.11449,1.21957 -1.08373,0.77893 -1.84589,1.8965 -2.28615,3.35277 v -4.115 h -8.8899 v 36.38848 h -8.11165 c 0.95393,-0.47458 1.74003,-1.08891 2.35696,-1.84433 1.69334,-2.06587 2.5399,-5.26655 2.5399,-9.60148 v -2.13372 h -8.83925 v 3.60701 c 0,1.016 -0.0335,1.79494 -0.10129,2.33681 -0.0339,0.508 -0.20317,0.96509 -0.50797,1.37149 -0.27093,0.4064 -0.74533,0.60979 -1.42267,0.60979 -0.88053,0 -1.45608,-0.35592 -1.72701,-1.06712 -0.27093,-0.74507 -0.40669,-1.76095 -0.40672,-3.04788 v -7.21352 h 12.90363 c 0.0677,-1.69333 0.10128,-3.89439 0.10128,-6.60373 v -2.69286 c 0,-7.0104 -3.57286,-10.51512 -10.71872,-10.51512 -3.52214,0 -6.2652,0.89741 -8.22947,2.69235 -1.96427,1.79493 -2.94661,4.40224 -2.94661,7.82277 v 14.93553 c 0,4.1656 0.82978,7.29814 2.48925,9.39788 0.63423,0.80248 1.42785,1.45034 2.37868,1.94613 h -8.22327 v -42.84028 h -8.6868 v 15.59595 h -4.11448 v -15.59595 h -8.686799 v 42.84028 H 46.951161 L 15.431641,24.72252 28.174001,28.26856 C 18.832011,18.79549 0,0 0,0 Z m 132.07154,50.360752 c 1.3208,0 1.98128,1.33773 1.98128,4.0132 v 4.77542 h -4.2163 v -4.77542 c 0,-2.67547 0.74488,-4.0132 2.23502,-4.0132 z m 42.26718,0 c 1.3208,0 1.98128,1.33773 1.98128,4.0132 v 4.77542 h -4.21629 v -4.77542 c 0,-2.67547 0.74488,-4.0132 2.23501,-4.0132 z m -69.49807,11.17607 h 4.11448 v 19.01486 h -4.11448 z"
     id="path2509" />
</svg>
